<?xml version="1.0" encoding="UTF-8" standalone="no"?><!DOCTYPE svg PUBLIC "-//W3C//DTD SVG 1.1//EN" "http://www.w3.org/Graphics/SVG/1.1/DTD/svg11.dtd"><svg width="100%" height="100%" viewBox="0 0 2166 884" version="1.1" xmlns="http://www.w3.org/2000/svg" xmlns:xlink="http://www.w3.org/1999/xlink" xml:space="preserve" xmlns:serif="http://www.serif.com/" style="fill-rule:evenodd;clip-rule:evenodd;stroke-linejoin:round;stroke-miterlimit:2;"><path d="M1177.82,6.168c241.264,0.015 437.127,196.57 437.112,438.655c-0.014,242.085 -195.902,438.616 -437.166,438.601c-241.264,-0.015 -437.128,-196.569 -437.113,-438.655c0.015,-242.085 195.903,-438.616 437.167,-438.601Zm-0.006,91.656c190.849,0.012 345.785,155.494 345.773,346.993c-0.012,191.499 -154.966,346.963 -345.816,346.951c-190.849,-0.012 -345.785,-155.494 -345.773,-346.993c0.012,-191.499 154.967,-346.962 345.816,-346.951Z" style="fill:#005495;"/><path d="M1520.43,172.516c59.168,74.848 94.509,169.469 94.502,272.307c-0.006,102.62 -35.209,197.054 -94.156,271.816l-65.228,-65.235c42.741,-57.737 68.034,-129.221 68.039,-206.587c0.005,-77.595 -25.431,-149.277 -68.378,-207.086l65.221,-65.215Z" style="fill:#ffcd03;"/><path d="M1132.21,396.827c-11.743,12.265 -17.599,28.193 -17.6,47.949c-0.001,19.755 5.82,35.161 17.594,47.427c11.774,12.266 26.623,18.384 44.645,18.385c18.022,0.001 32.904,-6.082 44.647,-18.379c11.743,-12.298 17.598,-28.03 17.6,-47.425c0.001,-19.396 -5.82,-35.685 -17.594,-47.951c-11.774,-12.266 -26.623,-18.384 -44.645,-18.385c-18.022,-0.001 -32.905,6.082 -44.647,18.379Z" style="fill:#ffcd03;fill-rule:nonzero;"/><path d="M0,883.352l0.006,-92.171l335.32,0.021l0.049,-791.202l98.352,0.006l-0.049,791.202l335.321,0.02l-0.006,92.171l-768.993,-0.047Z" style="fill:#005495;fill-rule:nonzero;"/><path d="M335.335,791.199l-335.329,-0.02l-0.006,92.173l335.33,0.02l0.005,-92.173Z" style="fill:#ffcd03;"/><path d="M1753.83,339.921l0.002,-37.614l107.781,-143.613c6.281,-8.177 11.056,-16.713 14.524,-25.511c3.468,-8.798 5.234,-17.073 5.235,-24.891l-0,-0.425c0.001,-12.363 -3.662,-21.849 -10.89,-28.718c-7.228,-6.869 -17.498,-10.173 -30.81,-10.174c-12.462,-0.001 -22.634,3.727 -30.485,11.152c-7.85,7.424 -12.626,17.923 -14.36,31.594l-0,0.164l-44.843,-0.003l0,-0.163c3.829,-26.624 13.512,-47.262 29.081,-61.98c15.57,-14.619 35.621,-22.01 60.151,-22.008c27.769,0.001 49.258,7.067 64.401,21.067c15.143,14 22.73,33.854 22.728,59.53l0,0.163c-0.001,10.892 -2.258,22.372 -6.805,34.311c-4.515,12.003 -10.893,23.418 -18.908,34.309l-89.496,121.504l116.898,0.007l-0.002,41.277l-174.268,-0.01l0,0.098l0.066,-0.066Z" style="fill:#ffcd03;fill-rule:nonzero;"/><path d="M2071.58,343.179c-29.502,-0.002 -51.547,-7.919 -66.166,-23.685c-14.718,-15.766 -22.011,-37.157 -22.009,-64.076l0.009,-140.512c0.001,-27.344 7.395,-48.833 22.278,-64.401c14.883,-15.568 36.83,-23.416 65.907,-23.414c29.078,0.001 51.188,7.755 65.971,23.259c14.783,15.504 22.206,36.994 22.204,64.501l-0.008,140.513c-0.002,27.344 -7.395,48.832 -22.213,64.4c-14.785,15.568 -36.83,23.417 -65.973,23.415Zm0.002,-41.277c15.831,0.001 27.344,-4.185 34.312,-12.46c7.065,-8.275 10.533,-19.657 10.534,-34.114l0.008,-140.512c0.001,-14.621 -3.465,-26.036 -10.529,-34.213c-6.967,-8.178 -18.447,-12.365 -34.31,-12.366c-15.863,-0.001 -27.344,4.087 -34.311,12.362c-7.066,8.176 -10.534,19.591 -10.534,34.211l-0.009,140.513c-0.001,14.457 3.465,25.839 10.53,34.115c6.966,8.275 18.446,12.463 34.309,12.464Z" style="fill:#ffcd03;fill-rule:nonzero;"/><path d="M1753.79,862.232l0.002,-37.614l107.781,-143.613c6.28,-8.177 11.056,-16.713 14.524,-25.511c3.467,-8.799 5.234,-17.073 5.235,-24.891l-0,-0.425c0,-12.363 -3.662,-21.849 -10.89,-28.718c-7.228,-6.869 -17.498,-10.173 -30.81,-10.174c-12.462,-0.001 -22.634,3.727 -30.485,11.151c-7.85,7.425 -12.626,17.924 -14.36,31.595l-0,0.164l-44.843,-0.003l0,-0.163c3.829,-26.624 13.511,-47.262 29.081,-61.98c15.57,-14.619 35.62,-22.01 60.151,-22.009c27.769,0.002 49.258,7.068 64.401,21.068c15.143,14 22.73,33.854 22.728,59.53l-0,0.163c-0.001,10.892 -2.258,22.372 -6.805,34.31c-4.515,12.004 -10.894,23.419 -18.908,34.31l-89.496,121.504l116.898,0.007l-0.002,41.277l-174.268,-0.011l0,0.099l0.066,-0.066Z" style="fill:#ffcd03;fill-rule:nonzero;"/><path d="M1966.3,814.884l0.003,-37.614l103.697,-223.813l44.646,0.003l-101.179,221.262l151.568,0.009l-0.002,40.133l-198.733,-0.012l0,0.032Zm133.282,47.631l0.011,-181.921l42.291,0.003l-0.011,181.921l-42.291,-0.003Z" style="fill:#ffcd04;fill-rule:nonzero;"/></svg>